<svg width="80" height="80" viewBox="0 0 80 80" fill="none" xmlns="http://www.w3.org/2000/svg">
<g opacity="0.2">
<rect x="0.500015" y="0.5" width="16.7778" height="3.44444" fill="white" stroke="white"/>
<rect x="3.94446" y="0.5" width="16.7778" height="3.44444" transform="rotate(90 3.94446 0.5)" fill="white" stroke="white"/>
<rect x="-0.5" y="0.5" width="16.7778" height="3.44444" transform="matrix(-1 0 0 1 79 0)" fill="white" stroke="white"/>
<rect x="0.5" y="0.5" width="16.7778" height="3.44444" transform="matrix(0 1 1 0 75.5556 0)" fill="white" stroke="white"/>
<rect x="79.5" y="79.5" width="16.7778" height="3.44444" transform="rotate(180 79.5 79.5)" fill="white" stroke="white"/>
<rect x="76.0556" y="79.5" width="16.7778" height="3.44444" transform="rotate(-90 76.0556 79.5)" fill="white" stroke="white"/>
<rect x="0.5" y="-0.5" width="16.7778" height="3.44444" transform="matrix(1 0 0 -1 1.52588e-05 79)" fill="white" stroke="white"/>
<rect x="-0.5" y="-0.5" width="16.7778" height="3.44444" transform="matrix(0 -1 -1 0 3.44446 79)" fill="white" stroke="white"/>
<rect x="9.3889" y="9.38892" width="25.6667" height="25.6667" fill="white" stroke="white"/>
<rect x="44.9445" y="9.38892" width="25.6667" height="25.6667" fill="white" stroke="white"/>
<rect x="44.9445" y="44.9445" width="7.88889" height="7.88889" fill="white" stroke="white"/>
<rect x="44.9445" y="62.7222" width="7.88889" height="7.88889" fill="white" stroke="white"/>
<rect x="53.8333" y="53.8334" width="7.88889" height="7.88889" fill="white" stroke="white"/>
<rect x="62.7222" y="44.9445" width="7.88889" height="7.88889" fill="white" stroke="white"/>
<rect x="62.7222" y="62.7222" width="7.88889" height="7.88889" fill="white" stroke="white"/>
<rect x="9.3889" y="44.9445" width="25.6667" height="25.6667" fill="white" stroke="white"/>
</g>
</svg>
