<svg width="17" height="9" viewBox="0 0 17 9" fill="none" xmlns="http://www.w3.org/2000/svg">
<path d="M1.58333 4.16667C1.58333 2.74167 2.74167 1.58333 4.16667 1.58333H7.5V0H4.16667C1.86667 0 0 1.86667 0 4.16667C0 6.46667 1.86667 8.33333 4.16667 8.33333H7.5V6.75H4.16667C2.74167 6.75 1.58333 5.59167 1.58333 4.16667ZM5 5H11.6667V3.33333H5V5ZM12.5 0H9.16667V1.58333H12.5C13.925 1.58333 15.0833 2.74167 15.0833 4.16667C15.0833 5.59167 13.925 6.75 12.5 6.75H9.16667V8.33333H12.5C14.8 8.33333 16.6667 6.46667 16.6667 4.16667C16.6667 1.86667 14.8 0 12.5 0Z" fill="#0B2878" fill-opacity="0.87"/>
</svg>
